<svg width="48" height="48" viewBox="0 0 48 48" fill="none" xmlns="http://www.w3.org/2000/svg">
<rect width="48" height="48" rx="24" fill="white"/>
<path d="M10 34.8889C10 35.1639 10.1229 35.4277 10.3417 35.6222C10.5605 35.8167 10.8572 35.9259 11.1667 35.9259C12.4032 35.9225 13.5879 35.4844 14.4622 34.7072C15.3366 33.93 15.8295 32.8769 15.8333 31.7778V30.7408C15.8333 30.1907 16.0792 29.6631 16.5168 29.2742C16.9543 28.8852 17.5478 28.6667 18.1667 28.6667H19.9167V33.8519C19.9167 34.4019 19.6708 34.9295 19.2332 35.3184C18.7957 35.7074 18.2022 35.9259 17.5833 35.9259C17.2739 35.9259 16.9772 36.0352 16.7584 36.2297C16.5396 36.4242 16.4167 36.6879 16.4167 36.963C16.4167 37.238 16.5396 37.5018 16.7584 37.6963C16.9772 37.8907 17.2739 38 17.5833 38C18.8198 37.9966 20.0046 37.5584 20.8789 36.7813C21.7533 36.0041 22.2462 34.951 22.25 33.8519V28.6667H25.75V33.8519C25.7538 34.951 26.2467 36.0041 27.1211 36.7813C27.9954 37.5584 29.1802 37.9966 30.4167 38C30.7261 38 31.0228 37.8907 31.2416 37.6963C31.4604 37.5018 31.5833 37.238 31.5833 36.963C31.5833 36.6879 31.4604 36.4242 31.2416 36.2297C31.0228 36.0352 30.7261 35.9259 30.4167 35.9259C29.7978 35.9259 29.2043 35.7074 28.7668 35.3184C28.3292 34.9295 28.0833 34.4019 28.0833 33.8519V28.6667H29.8333C30.4522 28.6667 31.0457 28.8852 31.4832 29.2742C31.9208 29.6631 32.1667 30.1907 32.1667 30.7408V31.7778C32.1705 32.8769 32.6634 33.93 33.5378 34.7072C34.4121 35.4844 35.5968 35.9225 36.8333 35.9259C37.1428 35.9259 37.4395 35.8167 37.6583 35.6222C37.8771 35.4277 38 35.1639 38 34.8889C38 34.6139 37.8771 34.3501 37.6583 34.1556C37.4395 33.9611 37.1428 33.8519 36.8333 33.8519C36.2145 33.8519 35.621 33.6333 35.1834 33.2444C34.7458 32.8554 34.5 32.3279 34.5 31.7778V30.7408C34.499 30.0433 34.3009 29.3573 33.9237 28.7457C33.5466 28.1341 33.0026 27.6166 32.3417 27.2408C33.3723 26.5689 34.2104 25.6906 34.7881 24.6772C35.3658 23.6637 35.6668 22.5436 35.6667 21.4074V20.3704C35.6521 19.0823 35.2654 17.819 34.5438 16.7019C34.8993 15.6787 35.0129 14.6012 34.8773 13.5371C34.7418 12.4729 34.3601 11.4453 33.7563 10.5186C33.6565 10.3597 33.5104 10.2276 33.3333 10.1364C33.1562 10.0451 32.9547 9.99801 32.75 10.0001C31.391 9.99703 30.0501 10.2768 28.8346 10.8171C27.619 11.3573 26.5627 12.143 25.75 13.1112H22.25C21.4373 12.143 20.381 11.3573 19.1654 10.8171C17.9499 10.2768 16.609 9.99703 15.25 10.0001C15.0453 9.99801 14.8438 10.0451 14.6667 10.1364C14.4896 10.2276 14.3435 10.3597 14.2438 10.5186C13.6399 11.4453 13.2582 12.4729 13.1227 13.5371C12.9872 14.6012 13.1007 15.6787 13.4563 16.7019C12.7346 17.819 12.3479 19.0823 12.3333 20.3704V21.4074C12.3332 22.5436 12.6342 23.6637 13.2119 24.6772C13.7896 25.6906 14.6277 26.5689 15.6583 27.2408C14.9974 27.6166 14.4534 28.1341 14.0763 28.7457C13.6991 29.3573 13.501 30.0433 13.5 30.7408V31.7778C13.5 32.3279 13.2542 32.8554 12.8166 33.2444C12.379 33.6333 11.7855 33.8519 11.1667 33.8519C10.8572 33.8519 10.5605 33.9611 10.3417 34.1556C10.1229 34.3501 10 34.6139 10 34.8889Z" fill="#46499F"/>
</svg>
