<svg width="909" height="964" viewBox="0 0 909 964" fill="none" xmlns="http://www.w3.org/2000/svg">
<path d="M369.863 -122.127C540.594 -80.8681 359.882 41.3478 474.247 155.13C579.057 259.404 822.902 120.157 801.182 379.761C786.311 557.498 829.82 633.116 965.178 698.351" stroke="#56CCF2" stroke-width="0.594229"/>
<path d="M379.491 -129.953C550.222 -88.6935 369.51 33.5224 483.876 147.304C588.685 251.579 832.53 112.331 810.81 371.935C795.94 549.672 839.449 625.29 974.807 690.526" stroke="#56CCF2" stroke-width="0.594229"/>
<path d="M389.119 -137.778C559.85 -96.5189 379.138 25.697 493.504 139.479C598.313 243.754 842.158 104.506 820.438 364.11C805.568 541.847 849.077 617.465 984.435 682.701" stroke="#56CCF2" stroke-width="0.594229"/>
<path d="M398.747 -145.604C569.478 -104.344 388.767 17.8716 503.132 131.654C607.941 235.928 851.786 96.6804 830.066 356.284C815.196 534.021 858.705 609.64 994.063 674.875" stroke="#56CCF2" stroke-width="0.594229"/>
<path d="M408.375 -153.429C579.106 -112.17 398.395 10.0462 512.76 123.828C617.57 228.103 861.415 88.855 839.695 348.459C824.824 526.196 868.333 601.814 1003.69 667.05" stroke="#56CCF2" stroke-width="0.594229"/>
<path d="M418.004 -161.254C588.735 -119.995 408.023 2.22091 522.389 116.003C627.198 220.277 871.043 81.0297 849.323 340.634C834.453 518.371 877.962 593.989 1013.32 659.225" stroke="#56CCF2" stroke-width="0.594229"/>
<path d="M427.632 -169.08C598.363 -127.82 417.651 -5.60452 532.017 108.177C636.826 212.452 880.671 73.2042 858.951 332.808C844.081 510.545 887.59 586.163 1022.95 651.399" stroke="#56CCF2" stroke-width="0.594229"/>
<path d="M437.26 -176.905C607.991 -135.646 427.279 -13.4299 541.645 100.352C646.454 204.627 890.299 65.3789 868.579 324.983C853.709 502.72 897.218 578.338 1032.58 643.574" stroke="#56CCF2" stroke-width="0.594229"/>
<path d="M446.888 -184.73C617.619 -143.471 436.908 -21.2552 551.273 92.5267C656.083 196.801 899.928 57.5535 878.208 317.158C863.337 494.895 906.846 570.513 1042.2 635.748" stroke="#56CCF2" stroke-width="0.594229"/>
<path d="M456.517 -192.556C627.248 -151.297 446.536 -29.0806 560.902 84.7012C665.711 188.976 909.556 49.7281 887.836 309.332C872.965 487.069 916.474 562.687 1051.83 627.923" stroke="#56CCF2" stroke-width="0.594229"/>
<path d="M466.145 -200.381C636.876 -159.122 456.164 -36.9061 570.53 76.8758C675.339 181.15 919.184 41.9027 897.464 301.507C882.594 479.244 926.103 554.862 1061.46 620.098" stroke="#56CCF2" stroke-width="0.594229"/>
<path d="M475.773 -208.207C646.504 -166.947 465.793 -44.7315 580.158 69.0504C684.968 173.325 928.812 34.0773 907.093 293.681C892.222 471.418 935.731 547.036 1071.09 612.272" stroke="#56CCF2" stroke-width="0.594229"/>
<path d="M485.401 -216.032C656.132 -174.773 475.421 -52.5568 589.786 61.225C694.596 165.5 938.441 26.2519 916.721 285.856C901.85 463.593 945.359 539.211 1080.72 604.447" stroke="#56CCF2" stroke-width="0.594229"/>
<path d="M495.029 -223.857C665.76 -182.598 485.049 -60.3822 599.414 53.3997C704.224 157.674 948.069 18.4266 926.349 278.031C911.478 455.768 954.987 531.386 1090.35 596.621" stroke="#56CCF2" stroke-width="0.594229"/>
<path d="M504.657 -231.683C675.388 -190.423 494.677 -68.2075 609.042 45.5744C713.852 149.849 957.697 10.6012 935.977 270.205C921.106 447.942 964.615 523.56 1099.97 588.796" stroke="#56CCF2" stroke-width="0.594229"/>
<path d="M514.286 -239.508C685.017 -198.249 504.305 -76.033 618.671 37.7489C723.48 142.024 967.325 2.77578 945.605 262.38C930.735 440.117 974.244 515.735 1109.6 580.971" stroke="#56CCF2" stroke-width="0.594229"/>
<path d="M523.914 -247.334C694.645 -206.074 513.934 -83.8583 628.299 29.9235C733.108 134.198 976.953 -5.0496 955.233 254.554C940.363 432.291 983.872 507.91 1119.23 573.145" stroke="#56CCF2" stroke-width="0.594229"/>
<path d="M533.542 -255.159C704.273 -213.9 523.562 -91.6838 637.927 22.0981C742.737 126.373 986.582 -12.875 964.862 246.729C949.991 424.466 993.5 500.084 1128.86 565.32" stroke="#56CCF2" stroke-width="0.594229"/>
<path d="M543.171 -262.984C713.902 -221.725 533.19 -99.5091 647.556 14.2727C752.365 118.547 996.21 -20.7004 974.49 238.904C959.62 416.641 1003.13 492.259 1138.49 557.494" stroke="#56CCF2" stroke-width="0.594229"/>
<path d="M552.799 -270.81C723.53 -229.55 542.818 -107.335 657.184 6.44737C761.993 110.722 1005.84 -28.5258 984.118 231.078C969.248 408.815 1012.76 484.433 1148.11 549.669" stroke="#56CCF2" stroke-width="0.594229"/>
</svg>
