<svg width="10" height="17" viewBox="0 0 10 17" fill="none" xmlns="http://www.w3.org/2000/svg">
<path d="M4.875 0.958801C2.18205 0.958801 0 3.13208 0 5.82405C0 10.4787 4.875 16.5491 4.875 16.5491C4.875 16.5491 9.75 10.4777 9.75 5.82405C9.75 3.13305 7.56795 0.958801 4.875 0.958801ZM4.875 8.51603C4.17682 8.51603 3.50723 8.23868 3.01354 7.74499C2.51985 7.2513 2.2425 6.58171 2.2425 5.88353C2.2425 5.18534 2.51985 4.51576 3.01354 4.02207C3.50723 3.52838 4.17682 3.25103 4.875 3.25103C5.57318 3.25103 6.24277 3.52838 6.73646 4.02207C7.23015 4.51576 7.5075 5.18534 7.5075 5.88353C7.5075 6.58171 7.23015 7.2513 6.73646 7.74499C6.24277 8.23868 5.57318 8.51603 4.875 8.51603Z" fill="#4F4F4F"/>
</svg>
